<svg xmlns="http://www.w3.org/2000/svg" viewBox="0 0 500 500"><g id="freepik--background-complete--inject-582"><path d="M455.8,170.35H239s4.88-17.67,20.07-13.21c0,0,3.12-10.73,11.56-16.3s19.26,0,19.26,0,2.3-8.37,8.29-11.35,12.6,0,12.6,0S317.44,106,338.46,106c22.32,0,26.1,20.81,26.1,20.81s8.72-15.81,26-11.71c14.45,3.43,17.34,22.32,17.34,22.32a10.59,10.59,0,0,1,8.85,0c4.8,2.17,5.17,8.67,5.17,8.67s6-3.63,11.83,0c6.63,4.15,5.07,14.19,5.07,14.19S449,160,455.8,170.35Z" style="fill:#ebebeb"></path><path d="M189,258.38H44.2s3.26-10.15,13.41-7.59a18.81,18.81,0,0,1,7.71-9.36c5.64-3.2,12.87,0,12.87,0s1.54-4.81,5.53-6.52,8.42,0,8.42,0,4.49-13.51,18.53-13.51c14.9,0,17.43,12,17.43,12a16.87,16.87,0,0,1,17.37-6.73c9.65,2,11.58,12.82,11.58,12.82a8.12,8.12,0,0,1,5.92,0c3.2,1.24,3.45,5,3.45,5a9.11,9.11,0,0,1,7.9,0c4.43,2.38,3.39,8.15,3.39,8.15A14.77,14.77,0,0,1,189,258.38Z" style="fill:#ebebeb"></path></g><g id="freepik--Hearts--inject-582"><path d="M245.6,250.84A47.32,47.32,0,0,1,235.12,268a47.2,47.2,0,0,1-18.44-8c-7.23-5.13-10.31-15.76-3.76-20.35,4.84-3.38,9.92.32,12.76,3.16l.52,9,2.89-.92.48,6.53,2-.64.77,6.38.64-8.71-2,.65.51-7.13-2.49.79.24-10.12c1.15-3.32,3.39-6.62,7.77-6.58C245,232.11,248.56,242.48,245.6,250.84Z" style="fill:#FFC727"></path><path d="M440.46,108.19a74.83,74.83,0,0,1-28.6,13.87A74.73,74.73,0,0,1,394.1,95.7c-5.25-13-.29-29.81,12.37-30.33,9.33-.38,12.95,8.89,14.31,15.11l-7,12.4,4.64,1.25-4.94,9.11,3.21.86-4.43,9.15,8.3-11-3.28-.89,6.76-9.06-4-1.08,9-13.28c4.38-3.45,10.18-5.92,16-2.14C455.61,82.69,451.54,99.59,440.46,108.19Z" style="fill:#FFC727"></path></g><g id="freepik--Floor--inject-582"><path d="M41.77,395.54c133.41-.61,283.05-.62,416.46,0-133.41.62-283,.61-416.46,0Z" style="fill:#263238"></path></g><g id="freepik--Cloud--inject-582"><path d="M61.48,120.23H321s-3.83-7.43-9.11-11.14-13,0-13,0,.85-6.63-3.77-10.35a10.82,10.82,0,0,0-9.87-1.81s-.34-16.21-13-26c-14.28-11.08-30.35-5.74-30.35-5.74S229.1,36.43,186.13,44.55C159.67,49.55,142,74,142,74s-6.14-4.14-11.2-1.44-4.86,8.53-4.86,8.53a25,25,0,0,0-19.8,1.26c-10.45,5.28-8.32,17-8.32,17S72.25,97,61.48,120.23Z" style="fill:#FFC727"></path><g style="opacity:0.5"><path d="M61.48,120.23H321s-3.83-7.43-9.11-11.14-13,0-13,0,.85-6.63-3.77-10.35a10.82,10.82,0,0,0-9.87-1.81s-.34-16.21-13-26c-14.28-11.08-30.35-5.74-30.35-5.74S229.1,36.43,186.13,44.55C159.67,49.55,142,74,142,74s-6.14-4.14-11.2-1.44-4.86,8.53-4.86,8.53a25,25,0,0,0-19.8,1.26c-10.45,5.28-8.32,17-8.32,17S72.25,97,61.48,120.23Z" style="fill:#fff"></path></g><path d="M217.52,148.88c-4.42,0-4.17-5.06-2.13-10.11.65-1.63,1.09-3,2.13-5.17,1,2.16,1.47,3.54,2.13,5.17C221.68,143.82,221.93,148.88,217.52,148.88Z" style="fill:#455a64"></path><path d="M233.27,205.57c-4.42,0-4.17-5.06-2.14-10.12.66-1.62,1.1-3,2.14-5.16,1,2.16,1.47,3.54,2.12,5.16C237.43,200.51,237.68,205.57,233.27,205.57Z" style="fill:#455a64"></path><path d="M263.22,178.23c-4.42,0-4.17-5.06-2.13-10.12.65-1.62,1.09-3,2.13-5.16,1,2.16,1.47,3.54,2.12,5.16C267.38,173.17,267.63,178.23,263.22,178.23Z" style="fill:#455a64"></path><path d="M145.37,200.4c-4.42,0-4.17-5.06-2.13-10.12.65-1.62,1.09-3,2.13-5.16,1,2.16,1.47,3.54,2.13,5.16C149.53,195.34,149.78,200.4,145.37,200.4Z" style="fill:#455a64"></path><path d="M166.8,171.11c-4.42,0-4.17-5.06-2.13-10.11.65-1.63,1.09-3,2.13-5.16,1,2.16,1.47,3.53,2.12,5.16C171,166.05,171.21,171.11,166.8,171.11Z" style="fill:#455a64"></path><path d="M106.1,145.8c-4.41,0-4.16-5.06-2.13-10.12.66-1.62,1.09-3,2.13-5.16,1,2.16,1.47,3.54,2.13,5.16C110.26,140.74,110.51,145.8,106.1,145.8Z" style="fill:#455a64"></path><path d="M187.45,247c-4.42,0-4.16-5.06-2.13-10.11.65-1.63,1.09-3,2.13-5.16,1,2.16,1.47,3.53,2.13,5.16C191.61,241.93,191.86,247,187.45,247Z" style="fill:#455a64"></path><g style="opacity:0.1"><path d="M175.73,89c-1.15,3.17-2.59,9.08-6.55,9.77-4.15.73-5.82-8-6.65-11-.27-1-1.15-1.26-1.08.47.18,4.54,1.16,14,7.37,13.44,5.22-.45,7.34-8.46,7.64-12.5A.38.38,0,0,0,175.73,89Z"></path><path d="M206.76,88.27c1.11,3.18,2.47,9.11,6.43,9.86,4.14.77,5.91-7.92,6.78-10.95.28-1,1.17-1.26,1.07.47-.24,4.54-1.32,14-7.53,13.35-5.21-.51-7.23-8.54-7.49-12.59A.38.38,0,0,1,206.76,88.27Z"></path><path d="M185.23,101.4c.92-2.82,2-7.05,5.25-7.94,3.75-1,6,4.78,6.77,7.7a.29.29,0,0,0,.58-.08c0-4-1.49-9.9-6.4-10-5.61-.14-6.36,6.3-6.76,10.07C184.62,101.59,185.07,101.88,185.23,101.4Z"></path></g></g><g id="freepik--Unicorn--inject-582"><path d="M150.58,279.9s-17.26-10.44-22.89-11.7-40.17,7.15-54.57,16.26-37.26,62.8-29.94,89.3c4.34,15.7,48.7,29.2,55.09,49.69C101.19,432.82,84,435,82.49,441.51c-1.11,4.89,2.28,14.42,26.09,8.61,0,0-18.73,1.8-15.14-6.65,2.14-5,28.28-3,31.86-27.68,1.08-7.45-6.24-32.26-9.32-37.59s-15.57-20.1-16.93-26.06S94.33,323.32,97,318.07s21.51-28.25,30.07-30.44,17.1,1.65,17.1,1.65Z" style="fill:#FFC727"></path><path d="M147.44,284.47l-3.3,4.81s-8.55-3.85-17.1-1.65S99.6,312.82,97,318.07s.71,28.11,2.08,34.07S112.9,372.87,116,378.2s10.4,30.14,9.32,37.59c-2.69,18.58-18.17,22-26.57,24.74h0a35.64,35.64,0,0,0,20.65-17.08c3.55-6.5-1.77-33.79-3.32-35.79s-18.29-20.62-21.78-24S86.41,324.53,88.69,321s20.35-30.07,34.83-36.51C127.3,282.79,147.44,284.47,147.44,284.47Z" style="opacity:0.1"></path><path d="M51.75,384.49c5.64,5.67,34.5,25,36.8,30s-.49,8.56-3.62,8.61a11.53,11.53,0,0,1-6-1.95s4.11,4.69,9.64,3.86,6.56-6.9,5.53-10.22S83,392.21,83,392.21Z" style="fill:#FFC727"></path><g style="opacity:0.4"><path d="M125.3,415.79a44,44,0,0,1-1.08,6l-.42-.09a40.26,40.26,0,0,0-.5-11.55c-1.55-7.45-5-14.68-10.59-19.9s-12-10-17.59-15.49c-2.94-2.78-5.67-6.18-6.73-10.2-2.32-7.64-3.36-15.43-4.17-23.32-.35-3.92-.6-7.85-.63-11.81s.33-8.54,2.41-12a89.89,89.89,0,0,1,15.47-19.92c5.89-4.56,12.64-7.81,19.38-10.92,2.77-1.1,5.52-2.41,8.58-2.58,4.92.82,9.37,3,13.9,4.93-4.52-1.54-9.17-3.44-13.9-4-2.79.33-5.44,1.75-8,2.94-3.46,1.73-6.86,3.61-10.17,5.63s-6.65,3.86-9.22,6.66C97,305.83,92,312,88.5,318.72c-1.89,3.45-2.07,6.86-2,10.69s.32,7.71.69,11.56c.78,7.62,1.74,15.42,3.93,22.73,1,3.82,3.17,6.47,5.89,9.18,5.45,5.52,11.59,10.38,17.15,15.89a33.56,33.56,0,0,1,6.78,9.85,39.64,39.64,0,0,1,3.28,23.15l-.42-.09a45.34,45.34,0,0,0,1.49-5.89Z" style="fill:#fff"></path><path d="M94.13,414.82c-1.9-10-26.38-28.83-34.61-36.78a32.32,32.32,0,0,1-3.75-3.91A12,12,0,0,1,54.26,370c-1.26-6.76-1-13.66-.66-20.46a121,121,0,0,1,2.17-17.26,172.29,172.29,0,0,1,4.79-16.67A189,189,0,0,1,69.1,294.2a20.22,20.22,0,0,1,3.37-5.3c4.46-4,9.58-6.64,14.74-9.45a97.48,97.48,0,0,1,21.31-8.29,124.75,124.75,0,0,0-20.1,10.43c-4.62,2.93-9.51,6-13.37,9.83a19,19,0,0,0-2.41,4.44c-2.86,6.85-5.37,14-7.58,21.19-1.38,4.45-2.73,9-3.86,13.53A139.54,139.54,0,0,0,58.09,361c.07,3.42,0,7.16,1.13,10.36,1.67,2.55,5,5.3,7.22,7.65,7.62,7.74,26.92,25.29,27.69,35.8Z" style="fill:#fff"></path><path d="M99.35,376.9c10.24,10.43,20.83,23.13,20.48,38.63a20,20,0,0,1-1.34,6.37c-4,11.4-8.8,11.59-18.91,15.8-2.79,1.26-6.06,2.25-8.07,4.62a4.83,4.83,0,0,0,.07,4.35c.56,1.63,2.32,1.82,3.77,2.28a49.63,49.63,0,0,0,6.25,1.22,43.51,43.51,0,0,1-6.31-1c-1.22-.36-2.87-.5-3.69-1.64C90.58,446,90,443.81,91,442a8,8,0,0,1,2.48-2.17c3.69-2.2,7.73-3.65,11.65-5.32s7.75-3.35,9.78-7.26a30.69,30.69,0,0,0,3.91-11,37.9,37.9,0,0,0-.44-7.06c-2.06-12.74-10.8-22.93-19.07-32.34Z" style="fill:#fff"></path></g><path d="M304.32,153.45c-8-.13-109.77-5.13-113-2.25s110.14,16,112.78,15C306.47,165.26,307.12,153.5,304.32,153.45Z" style="fill:#FFC727"></path><path d="M304.32,153.45c-8-.13-109.77-5.13-113-2.25s110.14,16,112.78,15C306.47,165.26,307.12,153.5,304.32,153.45Z" style="fill:#fff;opacity:0.5"></path><path d="M296.49,153.17c1.42,1.86,1.71,4.27,2.28,6.46a55.14,55.14,0,0,0,1.89,6.5c-3.1-3.64-3-8.58-4.17-13Z" style="fill:#FFC727"></path><path d="M283.69,152.63c1.26,1.83,1.61,4.09,2.25,6.16s1.22,4.1,1.91,6.21c-2.87-3.51-3.3-8.1-4.16-12.37Z" style="fill:#FFC727"></path><path d="M270.88,152.11a26.54,26.54,0,0,1,2.17,5.72l1.81,5.79c-2.62-3.27-3.38-7.48-4-11.51Z" style="fill:#FFC727"></path><path d="M258,151.61a26.17,26.17,0,0,1,1.74,5.26c.45,1.74,1,3.42,1.53,5.21-2.51-2.88-3-6.8-3.27-10.47Z" style="fill:#FFC727"></path><path d="M245.17,151.17c1.43,3,2,6.16,3.05,9.34-2.26-2.54-3-6-3.05-9.34Z" style="fill:#FFC727"></path><path d="M232.32,150.76a34.56,34.56,0,0,1,2.81,8.1,12.45,12.45,0,0,1-2.81-8.1Z" style="fill:#FFC727"></path><path d="M219.69,150.47c1.16,2,1,4.28,1.61,6.53-1.88-1.61-1.82-4.29-1.61-6.53Z" style="fill:#FFC727"></path><path d="M208.5,155.12c-1.38-1.23-1.27-3.16-1.36-4.81,1.39,1.17,1.27,3.11,1.36,4.81Z" style="fill:#FFC727"></path><path d="M195.09,152.7a1.47,1.47,0,0,1-.79-2.09,1.47,1.47,0,0,1,.79,2.09Z" style="fill:#FFC727"></path><path d="M422.57,282.67c2.34,8.87,2.48,22.18-1.31,32-3.27,8.47-2.35,16.57,4.31,18.92s9-5.92,9-5.92-3.15,11.92-11.89,11.92c-6.53,0-19.83-8.09-22.31-15.78S422.57,282.67,422.57,282.67Z" style="fill:#FFC727"></path><path d="M422.57,282.67c2.34,8.87,2.48,22.18-1.31,32-3.27,8.47-2.35,16.57,4.31,18.92s9-5.92,9-5.92-3.15,11.92-11.89,11.92c-6.53,0-19.83-8.09-22.31-15.78S422.57,282.67,422.57,282.67Z" style="opacity:0.2"></path><path d="M399.13,336.09S410.67,360,417.72,368s13.76,9.59,14.42,14.09.84,18.4-8,21.14-37.77,2.74-49.91,2.54-58.51-2.74-63.4-2.93S399.13,336.09,399.13,336.09Z" style="fill:#FFC727"></path><path d="M399.13,336.09S410.67,360,417.72,368s13.76,9.59,14.42,14.09.84,18.4-8,21.14-37.77,2.74-49.91,2.54-58.51-2.74-63.4-2.93S399.13,336.09,399.13,336.09Z" style="fill:#fff;opacity:0.4"></path><path d="M376.23,372.4c14.35,13.77,15.42,12.76,34,17.14a18.94,18.94,0,0,1,5.33,2,27.16,27.16,0,0,0-5.52-1c-7.44-1.09-15.53-1.47-22-5.75a49.22,49.22,0,0,1-11.78-12.35Z" style="fill:#FFC727"></path><path d="M337.68,227.42s-1.83,22.18-3.66,24.79-26.35,24-29.22,25.31-71,6.79-73.84,7-35-15.13-62.37-14.09S94.5,346.92,105.2,370.93c5.07,11.38,15.61,18.47,27.65,26.88,13.35,9.31,23.71,19.39,32.35,20.35C181.64,420,262.53,408,272.44,408S381.51,380.84,388,374.84s43.83-71.49,44.1-103.85-56.89-121.85-72.81-129.42-48.14,5.28-53.36,10-30.66,93.09-33.53,95.7-6,3.91-5.21,9,14.48,11.09,23.35,10.57c5.22-.31,20.9-17.38,32-29.23C326.2,233.68,337.68,227.42,337.68,227.42Z" style="fill:#FFC727"></path><path d="M337.68,227.42s-1.83,22.18-3.66,24.79-26.35,24-29.22,25.31-71,6.79-73.84,7-35-15.13-62.37-14.09S94.5,346.92,105.2,370.93c5.07,11.38,15.61,18.47,27.65,26.88,13.35,9.31,23.71,19.39,32.35,20.35C181.64,420,262.53,408,272.44,408S381.51,380.84,388,374.84s43.83-71.49,44.1-103.85-56.89-121.85-72.81-129.42-48.14,5.28-53.36,10-30.66,93.09-33.53,95.7-6,3.91-5.21,9,14.48,11.09,23.35,10.57c5.22-.31,20.9-17.38,32-29.23C326.2,233.68,337.68,227.42,337.68,227.42Z" style="fill:#fff;opacity:0.8"></path><path d="M431.45,278.9C426.38,313,394.06,369.3,388,374.84c-6.53,6-105.68,33.14-115.6,33.14s-90.8,12-107.24,10.18c-8.64-1-19-11-32.35-20.35-3.24-2.27-6.38-4.44-9.33-6.62,11.62,6.62,38.88,18.88,46.25,19.53,8.22.71,98.74-12.12,105.52-15.18S368,364.11,376.23,360,423.17,314.51,431.45,278.9Z" style="fill:#FFC727;opacity:0.2"></path><path d="M331.56,254.76c-7,7.3-26.82,27.78-28.11,28.39-1.58.73-64.5,8-75.48,8s-50.91-16.25-59.1-15.91c-14,.58-37.49,24.67-38.41,25.4,12.42-16.76,26.9-29.69,38.13-30.12,27.4-1,59.5,14.35,62.37,14.09s71-5.74,73.84-7C307.21,276.42,324.87,261.17,331.56,254.76Z" style="fill:#fff;opacity:0.5"></path><path d="M359,212.15c-4.09,11.07-17.63,36-25,40.06,1.83-2.61,3.66-24.79,3.66-24.79s-11.48,6.26-15.14,10.17c-9.91,10.62-23.53,25.43-30,28.61,4.51-3.09,28.29-34.28,29.45-35.56s14.13-10.75,14.8-10.6c.41.09,20.47-7,19.73-26.81C356.51,193.23,363.55,199.94,359,212.15Z" style="fill:#FFC727;opacity:0.2"></path><path d="M337.68,227.42c6.82-3.23,13.8-6.63,18.52-12.58,6.88-8.75,2.84-19.11-4.46-26.1L349.08,186a7.93,7.93,0,0,1-2.14-3.18,8.47,8.47,0,0,0,2.52,2.78l3,2.45c8.76,6.93,13,18.57,5.27,28-5.08,6-12.65,9.3-20,11.41Z" style="fill:#FFC727"></path><path d="M314.12,284.56a89.38,89.38,0,0,1,9.06,5.09c2,1.36,4.21,2.62,5.82,4.52,2.49,3.93,3.62,8.54,5.13,12.84l1.6,4.89a27.68,27.68,0,0,0,1.95,4.76,18.67,18.67,0,0,1-2.86-4.38c-2.32-4.61-4-9.54-6-14.26a10.91,10.91,0,0,0-1.68-3.08c-4.05-3.75-8.75-6.79-13-10.38Z" style="fill:#FFC727"></path><path d="M326.63,207.5c1.2,5.26-2.38,18.21-9.74,15.09-3.7-2.34-4.19-7.27-4.29-11.13,1.1,3.38,2,7.65,5.09,9.51,5.07,1.87,8.38-9.76,8.94-13.47Z" style="fill:#263238"></path><path d="M170.26,311.11c-.95-5.29-8-10.15-11.85-16-3.21-4.89.48-12.78,2.4-13.49,3.72-1.37,6.61,2.67,8.59,10.26,0,0,1.51-11.38,6.72-10.86,4,.39,5.87,8,3.3,13.42-1.68,3.55-5.18,6.51-7.31,11.22C170.32,309.57,170.26,311.11,170.26,311.11Z" style="fill:#FFC727"></path><path d="M156.51,318.07c-2.06-2.32-7-2.59-10.65-4.33-3.05-1.45-3.6-6.44-2.87-7.36,1.42-1.8,4-.67,7.3,2.47,0,0-2.67-6.06.05-7.37,2.08-1,5.29,2.17,5.65,5.62.24,2.25-.58,4.76-.22,7.72A10,10,0,0,0,156.51,318.07Z" style="fill:#FFC727"></path><path d="M321,151.36s0,16.83-5,22.43-13.7,9.54-14.36,14.63c-.61,4.79,4,5.41,4.52,5.47-.62,0-8.24-.17-8.16-8.55a14.7,14.7,0,0,1,2.53-8.11c-3.36,2.44-6.09,4.83-6.84,7-2,5.61,2.74,8.87,2.61,16.18s-8.09,11.09-10.83,12.27-7.95,8.47-8.21,11.21-.14,11.22,4.69,13.19c4.64,1.87,10.95.38,11.44.27-2.64,1.32-10.81,4.54-16.27,2.72s-10-10.69-10.3-17,7.16-12.79,9-15.4,2.08-6.39,2.08-8.86-5.93-10.67-7.69-13.18c-3-4.28-1.18-13.45.51-17.22s17.62-24.66,36.93-32.23L317,146.85Z" style="fill:#FFC727"></path><g style="opacity:0.4"><path d="M317,146.85c-2.95,5.41-6.3,10.8-10.9,15A19.55,19.55,0,0,1,303,164a94.09,94.09,0,0,0-12.07,8.28c-3.23,2.87-7.67,6.56-7.42,11.14.24,7.23,10,13.31,7.24,20.66-1.57,3.72-5.46,5.25-8.1,8A33,33,0,0,0,276,220.5a13.2,13.2,0,0,0,1.84,13.4,12.64,12.64,0,0,0,6.13,3.77,12.23,12.23,0,0,1-6.52-3.41A13.79,13.79,0,0,1,274.81,220a33.3,33.3,0,0,1,6.66-9.12c2.31-2.52,6.32-4.39,7.52-7.45,1.58-4.54-2.9-8.58-4.9-12.49a17.09,17.09,0,0,1-2.53-7.35c-.43-7.24,9-13.36,14.37-16.94,3.52-2.43,7.69-3.9,10.83-6.83A69.5,69.5,0,0,0,317,146.85Z" style="fill:#fff"></path><path d="M300.55,177.23c1.73-2.16,4-3.86,5.85-5.88,3.78-4,5.42-9.48,7.54-14.49l1.52-3.86,1.56-3.86c-1.83,6.69-3.77,13.5-7.36,19.49-2.27,3.62-6,5.82-9.11,8.6Z" style="fill:#fff"></path></g><path d="M321,151.36s0,16.83-5,22.43-13.7,9.54-14.36,14.63a4.56,4.56,0,0,0,.83,3.58c-6.59-5,8-17.15,11.34-21.72s4.69-21.72,4.69-21.72Z" style="opacity:0.1"></path><path d="M296.32,200.41c-.13,7.3-8.09,11.09-10.83,12.27s-7.95,8.47-8.21,11.21a23.8,23.8,0,0,0,.38,6.62c-.87-1.06-1.07-3.1-1.13-4.08-.28-4.6,1.93-8.44,4.27-11.6s9.92-6.08,12.25-10.24-5.82-13.05-4.6-18,12.1-9.41,12.1-9.41c-3.36,2.44-6.09,4.83-6.84,7C291.75,189.84,296.45,193.1,296.32,200.41Z" style="opacity:0.1"></path><path d="M313.18,132.2c4.38-3.58,14.73-2.78,20.7-4.91s13-9.68,17.91-12.6,17.91-1.73,26.14.93S394,131.94,400.88,132.2s11-6.37,11-6.37-2.26,8.89-8.36,10.48-9.15-1.19-9.15-1.19a33.7,33.7,0,0,1,6.76,7.3c2.66,4.11,8.49,14.06,18.58,19.5s15.52,4.91,26.13,9.82,16.19,33.43,9.42,45.64-21.49,23.88-20,35.69,11.28,16.58,11.81,25.2-2,14.07-7.43,18.58S420.78,307.73,424.36,315s12.47,5.57,14.06-1.59c0,0,0,8.49-8.62,10.61s-17.91-7.43-18.84-15.78c-1.33-11.94,8-21.36,4.52-34-1.25-4.56-6.32-14.64-8.63-23.88-1.39-5.54-.51-13.32.2-18.21,0,0-3.19,8.16-10.35,10.65s-12.84,1.89-17.51-2.69c0,0,2,1.69,7.86,1.69s12.53-6.36,13.63-14.92,1.09-20.6-5.47-27.36-19.61-11.94-22.89-20.7-4.08-26.87-13.43-34.13c-8.08-6.28-26.87-2.55-26.87-2.55Z" style="fill:#FFC727"></path><g style="opacity:0.4"><path d="M327.29,139.68c11.11-1.71,20-9.11,31-11.45,8.29-2.06,18.37-1,24,6.06,5.62,6.81,4.89,16.63,5.75,24.53a21.69,21.69,0,0,0,1.91,7.35,24.37,24.37,0,0,0,4.59,6.1c5.38,5.43,13.1,10.15,19.59,14.42,5,3.23,8.23,8.71,10.18,14.19,2,5.89,2.92,12.41.91,18.49-.21.65-.83,2.31-1.06,3-3.91,10.55-8.93,21.57-6.84,33,2.55,12.09,7.56,22.65,1.83,34.89-2.1,5-4.23,10.12-5.33,15.46-1.28,5.39-.06,11.1,4.19,14.88-7.62-5.9-5.81-15.14-3.32-23.18,1.43-5.21,4.05-10.22,4.57-15.6.89-8.91-3.18-17.07-5-25.79-2.37-10.54,1.42-21.35,4.93-31.09.47-1.29,1.66-4.54,2.1-5.78,3.53-9.23-1.19-23.58-9.31-29.13-6.79-4.55-14.31-9.09-20.09-15.07a28,28,0,0,1-5.16-7.14,25.29,25.29,0,0,1-2.11-8.58c-.54-5.65-.23-11.12-1.42-16.21-2.46-11.61-13.79-15.07-24.49-12.83a65.93,65.93,0,0,0-15.47,5.06,51.09,51.09,0,0,1-15.91,4.48Z" style="fill:#fff"></path><path d="M388,166.3c3,9.48,11.25,15.59,18.6,21.67,2.53,2,5.43,4,6.68,7.16a30.1,30.1,0,0,1,2.53,14.43c-.6,4.89-2.64,9.43-4.46,13.94a84.73,84.73,0,0,1-4.31,8.7c1.45-2.89,2.7-5.87,3.86-8.89,1.68-4.48,3.51-9.06,4-13.82a29.42,29.42,0,0,0-2.57-13.94c-1.24-3.08-3.91-4.84-6.36-6.88-7.32-6.13-15.59-12.67-18-22.37Z" style="fill:#fff"></path><path d="M433.17,301.44c4.78-4.8,9.59-14.81,6.32-21.4-1.16-2.34-2.62-4.54-4-6.77-5.31-8.68-11.72-19.13-8.35-29.65,1.49-4.34,4.74-10.13,6.85-14.26,2.31-4.64,4.68-9.45,5.35-14.62a41,41,0,0,0-5.23-22.47,26,26,0,0,0-4.7-6.12c-3.22-3.15-9.39-5.9-13.29-8.23-9.45-5.23-18.15-11.72-21-22.73-3-9.87-3.88-21.18-11.6-28.76a34.39,34.39,0,0,0-29-8.53A41.41,41.41,0,0,0,340,123.79a41.38,41.38,0,0,1,14.47-6.13A34.27,34.27,0,0,1,384,126c7.86,7.62,8.81,19.07,11.91,29,2.78,10.75,11.41,17.08,20.7,22.16,4.07,2.42,10.09,5,13.53,8.29a27.27,27.27,0,0,1,4.85,6.37,41.8,41.8,0,0,1,5.22,23.05c-.72,5.32-3.13,10.15-5.51,14.86-2.12,4.05-5.4,9.87-6.89,14.13-3.34,10.34,3,20.56,8.13,29.18,1.87,3.41,4.66,6.7,4.94,10.72.1,6.59-3.08,13.1-7.67,17.71Z" style="fill:#fff"></path><path d="M394.38,135.12c2.12,2,3.39,4.71,4.8,7.21,4.07,7.35,7.23,15.81,14.32,20.79a115.73,115.73,0,0,0,14.85,8.45c2.65,1.38,5.43,2.67,7.64,4.8,8.18,8.32,12.48,21.43,11.41,33-.94,8.95-7,16.42-12.1,23.29-3.31,4.59-7.53,9-8.67,14.68.51-5.85,4.48-10.72,7.47-15.54,4.62-7.09,9.93-14.13,10.68-22.69.6-8.32-1.84-16.79-5.9-24a29.2,29.2,0,0,0-4.91-6.57c-1.94-1.91-4.53-3.07-6.93-4.43-6.28-3.45-13.12-6.79-18.27-12.11-3-3.27-5-7.36-6.87-11.31-2.57-5.14-4-10.91-7.52-15.52Z" style="fill:#fff"></path></g><path d="M455.27,217.38c-6.76,12.2-21.49,23.88-20,35.69s11.28,16.58,11.81,25.2-2,14.07-7.43,18.58S420.78,307.73,424.36,315s12.47,5.57,14.06-1.59c0,0,0,8.49-8.62,10.61s-17.91-7.43-18.84-15.78c3.35,12.88,18.84,15.78,13.45,12.28s-7.16-11.36-4.55-17.52,24.16-8,25.33-22.9c.41-5.26-18-24.8-16.69-33.56s21.19-30.87,23.8-36.15c4.53-9.14.87-28.1,0-32C458.38,188.94,460.48,208,455.27,217.38Z" style="opacity:0.1"></path><path d="M333.89,149.05c-1.24-1.31-.33-5.12-1.7-8s-4.32-5.53-7.68-7.4-21.49-3.52-27.13-5.56c-3.86-1.41-7.12-4.24-8.2-3.44-1.95,1.45,16.33,25.78,19.53,29.11s12.75,3.09,12.75,3.09Z" style="fill:#FFC727"></path><path d="M333.89,149.05c-1.24-1.31-.33-5.12-1.7-8s-4.32-5.53-7.68-7.4-21.49-3.52-27.13-5.56c-3.86-1.41-7.12-4.24-8.2-3.44-1.95,1.45,16.33,25.78,19.53,29.11s12.75,3.09,12.75,3.09Z" style="fill:#fff;opacity:0.8"></path><path d="M323.58,149.61c-.54-5.88-2.53-7.64-8.12-9-4.54-1.24-9.36-2.14-13.47-4.6a26.89,26.89,0,0,1-7.33-6.07,50.16,50.16,0,0,0,8,4.68c5.7,2.81,12.12,2.9,17.78,6.16,3.09,1.75,3.66,5.69,3.09,8.86Z" style="fill:#FFC727"></path><path d="M288.82,260.81c0-2.67,1.23-7.55,4.34-8.17a1.65,1.65,0,0,1,1.58,2.21,4.46,4.46,0,0,1-2.35,2.18,7.37,7.37,0,0,1-1.83.64c.81-1.12,2.19-2.39,2.41-3.29-.05.09.26.25.32.22-1.86,1.49-2.92,4.2-4.47,6.21Z" style="fill:#FFC727"></path><path d="M313.19,203.66c1.15,1.2,6.66,2.8,12.34,1.07,1.54-.47,1.4-3.18.21-3.65s-4.92.11-9.52-2.11C313.76,197.78,311.48,201.87,313.19,203.66Z" style="fill:#FFC727"></path><path d="M299.71,369.76s6.46,8.41,5.09,12.13-16.63,20.74-16.24,24.27,12.52,12.19,12.52,12.19l-1.86-2.8s-18.1,5.38-25.05,9.29S261.55,442,262.53,442.36s24-1.08,25-1.17,12.33-5.29,14.29-4.9,6.45,4,10.66,4.21,11.94-4.11,20.26-5.19,51.27-6.75,56.26-7,9.1,3,16.54-5,9.29-22,3.32-23.78-27.79,2.25-50.39-2.93c0,0,12.92-3.33,15.85-7.54s4.11-12,2-16.63-26.61-25.44-27.3-39.73Z" style="fill:#FFC727"></path><path d="M299.71,369.76s6.46,8.41,5.09,12.13-16.63,20.74-16.24,24.27,12.52,12.19,12.52,12.19l-1.86-2.8s-18.1,5.38-25.05,9.29S261.55,442,262.53,442.36s24-1.08,25-1.17,12.33-5.29,14.29-4.9,6.45,4,10.66,4.21,11.94-4.11,20.26-5.19,51.27-6.75,56.26-7,9.1,3,16.54-5,9.29-22,3.32-23.78-27.79,2.25-50.39-2.93c0,0,12.92-3.33,15.85-7.54s4.11-12,2-16.63-26.61-25.44-27.3-39.73Z" style="fill:#fff;opacity:0.8"></path><path d="M306,422.15s-9.81,2.8-12.55,5.14-6.56,11.45-6,13.9c-1,.09-24,1.57-25,1.17s4.7-13.6,11.64-17.52c5.78-3.25,19.23-7.51,23.63-8.86Z" style="fill:#FFC727"></path><path d="M306,422.15s-9.81,2.8-12.55,5.14-6.56,11.45-6,13.9c-1,.09-24,1.57-25,1.17s4.7-13.6,11.64-17.52c5.78-3.25,19.23-7.51,23.63-8.86Z" style="opacity:0.30000000000000004"></path><path d="M401.74,408.9c-5.49,7.88-9.48,7.61-18.23,8.66-7,.75-13.94,1.37-20.9,2.05-17.46,1.28-34.87,4.53-52.45,4.39a18.09,18.09,0,0,1-5.36-1.33c-3.35-1.61-5.72-4.3-8.44-6.63-2.62-2.51-5.66-4.25-7.76-7.4a5.36,5.36,0,0,1-.83-3A8.21,8.21,0,0,1,289,403c2-3,4.32-5.6,6.53-8.32s4.41-5.41,6.33-8.29c1.29-2.12,3-4.38,2.65-7-.6-4.33-4-7.75-7.43-10.17,4.25,2.6,9.19,7.36,7.91,12.82-3.08,8.28-10.07,14.41-14.69,21.74-.58,1.13-1.27,1.77-.76,3,1.48,3.4,5.34,5.36,8,7.94,3.8,3.38,7.44,7.26,12.83,7.4,17.39-.06,34.72-3,52.12-4,7-.5,14-.95,20.94-1.5,8.71-.68,12.39-.18,18.32-7.69Z" style="fill:#FFC727"></path><path d="M348.64,328.53a21.11,21.11,0,0,0,3.78,13.14c2.32,3.24,6.25,7.77,8.86,10.89,4.08,4.93,11.58,13.29,15.22,18.4,3,4.42,1.57,14.75-1.62,18.82-3.39,3.85-8.36,4.9-12.92,6.42-8.93,2.7-17.89,6-24.57,12.83,6.08-7.39,15.23-11.36,24.09-14.31,4.12-1.54,9.06-2.72,11.92-6.13,2.68-3.75,3.57-11.57,1.87-15.88-.2-.35-.65-1-.89-1.34-4.57-6.08-9.59-11.84-14.3-17.82-2.92-3.69-5.86-7.36-8.48-11.34a20.89,20.89,0,0,1-3-13.68Z" style="fill:#FFC727"></path><path d="M353.72,334.14c-.4,4.84,1.09,9.36,2.79,13.79-3-3.75-4.61-9.2-2.79-13.79Z" style="fill:#FFC727"></path><path d="M304.64,378.36c-1.75-2.41-4.41-3.48-7.11-4.38a12.17,12.17,0,0,1-1.2-.41c.43-.05.85-.06,1.29-.07a9.13,9.13,0,0,1,3.76.95,5.74,5.74,0,0,1,3.26,3.91Z" style="fill:#FFC727"></path><path d="M132.85,397.81c8,5.84,20.09,14.53,18.72,20.54s-10.5,11.09-9.31,13.74,8.62,11.74,16.65,12.32,60.76-17.71,69-17.61,28.08,12.82,31.9,15.27,4.89,5.08,6.75,6.06,4.6.1,6.56,1.27-.88,7.54,0,8.81,7.34,7.54,11.54,8.42,30,.09,31-.88-8.51-12.63-10.08-14.29-10.27-3.82-11.15-5.09-1.67-4.79-5.09-6.36-26.42-10.86-33.17-15.46-11.94-15.17-19.18-18.1-16.44,4.21-23,6.16-25.15,4.21-25.15,4.21,27.79-21.13,28.77-34.93-18.2-29.26-19.38-46.77Z" style="fill:#FFC727"></path><path d="M132.85,397.81c8,5.84,20.09,14.53,18.72,20.54s-10.5,11.09-9.31,13.74,8.62,11.74,16.65,12.32,60.76-17.71,69-17.61,28.08,12.82,31.9,15.27,4.89,5.08,6.75,6.06,4.6.1,6.56,1.27-.88,7.54,0,8.81,7.34,7.54,11.54,8.42,30,.09,31-.88-8.51-12.63-10.08-14.29-10.27-3.82-11.15-5.09-1.67-4.79-5.09-6.36-26.42-10.86-33.17-15.46-11.94-15.17-19.18-18.1-16.44,4.21-23,6.16-25.15,4.21-25.15,4.21,27.79-21.13,28.77-34.93-18.2-29.26-19.38-46.77Z" style="fill:#fff;opacity:0.8"></path><path d="M166.64,422.86a151.3,151.3,0,0,1,23.44-7c5.78-1.06,12.23-2.07,18.06-3a28.87,28.87,0,0,0,5.73-1.29c5.63-2.24,11.22-5.2,17.31-6.38,4.31-.93,8.69,1.37,11.61,4.41,1.25,1.26,2.79,3.36,3.94,4.73,2.54,3.16,4.89,6.53,8,9.19-3.37-2.33-6-5.6-8.73-8.55-2.57-2.87-5.28-6.22-9-7.59-3.72-1.58-7.59,0-11.19,1.3-4.28,1.56-8.36,3.78-12.77,5.29-1.12.28-3.46.61-4.6.81-3.88.63-14.11,2.08-18.11,2.65-8,1.33-15.88,3.38-23.7,5.5Z" style="fill:#FFC727"></path><path d="M188.85,416.82c10.93-8.23,28.26-22.6,27.82-37.41-.17-8.13-5.22-15-9.57-21.6-4.55-6.71-8.87-14.36-8.86-22.69.83,8.27,5.38,15.25,10.15,21.8s10.07,13.83,10.28,22.44c.28,16-17.37,29.87-29.82,37.46Z" style="fill:#FFC727"></path><path d="M202.42,338.38a19.63,19.63,0,0,0,.4,9.48c.11.45.24.9.32,1.38-.28-.38-.53-.79-.78-1.21a11.41,11.41,0,0,1-1.26-4.12,7.76,7.76,0,0,1,1.32-5.53Z" style="fill:#FFC727"></path><path d="M315.66,465.74c-1,1-26.81,1.77-31,.89s-10.66-7.15-11.54-8.42c-.67-1,.81-4.9.69-7.23,1.65,1.26,25.92,6.5,31.28,4.63,3.36-1.18-3-5.86-3.3-6.09a12.56,12.56,0,0,1,3.81,1.93C307.15,453.13,316.64,464.77,315.66,465.74Z" style="fill:#FFC727"></path><path d="M315.66,465.74c-1,1-26.81,1.77-31,.89s-10.66-7.15-11.54-8.42c-.67-1,.81-4.9.69-7.23,1.65,1.26,25.92,6.5,31.28,4.63,3.36-1.18-3-5.86-3.3-6.09a12.56,12.56,0,0,1,3.81,1.93C307.15,453.13,316.64,464.77,315.66,465.74Z" style="opacity:0.30000000000000004"></path><path d="M326.66,238.72c-2.84,0-4-3.16-3.64-6.29.45-3.79,3.19-8.12,3.64-12.39.43,4.27,3.18,8.6,3.63,12.39C330.65,235.56,329.49,238.72,326.66,238.72Z" style="fill:#FFC727"></path><path d="M326.66,238.72c-2.84,0-4-3.16-3.64-6.29.45-3.79,3.19-8.12,3.64-12.39.43,4.27,3.18,8.6,3.63,12.39C330.65,235.56,329.49,238.72,326.66,238.72Z" style="fill:#fff;opacity:0.4"></path><path d="M325,228.06a22.39,22.39,0,0,0-.54,8.73c-1.59-2.64-1.05-6.21.54-8.73Z" style="fill:#fff"></path><polygon points="94.26 283.14 100.68 281.96 102.12 275.19 103.55 281.96 109.97 283.15 103.58 284.71 102.12 291.1 100.65 284.71 94.26 283.14" style="fill:#fff"></polygon><polygon points="413.72 238.6 420.14 237.41 421.58 230.64 423.01 237.41 429.43 238.6 423.04 240.16 421.58 246.56 420.11 240.16 413.72 238.6" style="fill:#fff"></polygon><polygon points="406.58 381.18 413 380 414.43 373.23 415.87 380 422.29 381.19 415.89 382.75 414.43 389.14 412.97 382.75 406.58 381.18" style="fill:#fff"></polygon><polygon points="287.74 150.24 294.16 149.05 295.59 142.29 297.03 149.05 303.45 150.24 297.06 151.81 295.59 158.2 294.13 151.81 287.74 150.24" style="fill:#fff"></polygon><polygon points="66.85 391.14 70.44 390.48 71.24 386.7 72.04 390.48 75.63 391.14 72.06 392.02 71.24 395.59 70.42 392.02 66.85 391.14" style="fill:#fff"></polygon><polygon points="270.9 177.55 274.49 176.88 275.29 173.1 276.1 176.88 279.68 177.55 276.11 178.42 275.29 181.99 274.48 178.42 270.9 177.55" style="fill:#fff"></polygon><polygon points="156.19 283.14 159.77 282.48 160.58 278.7 161.38 282.48 164.97 283.15 161.39 284.02 160.58 287.59 159.76 284.02 156.19 283.14" style="fill:#fff"></polygon><polygon points="424.11 175.03 427.7 174.37 428.5 170.59 429.31 174.37 432.89 175.04 429.32 175.91 428.5 179.48 427.69 175.91 424.11 175.03" style="fill:#fff"></polygon><polygon points="376.49 358.42 380.07 357.75 380.88 353.97 381.68 357.75 385.27 358.42 381.69 359.29 380.88 362.86 380.06 359.29 376.49 358.42" style="fill:#fff"></polygon><polygon points="312.19 284.57 315.78 283.91 316.58 280.13 317.38 283.91 320.97 284.57 317.4 285.44 316.58 289.02 315.76 285.44 312.19 284.57" style="fill:#fff"></polygon><polygon points="169.76 420.98 173.35 420.31 174.16 416.53 174.96 420.31 178.54 420.98 174.97 421.85 174.16 425.42 173.34 421.85 169.76 420.98" style="fill:#fff"></polygon><path d="M180.81,411.76a1,1,0,0,0,0-2.08A1,1,0,0,0,180.81,411.76Z" style="fill:#fff"></path><path d="M403.3,387.78a1,1,0,0,0,0-2.08A1,1,0,0,0,403.3,387.78Z" style="fill:#fff"></path><path d="M89.69,297.68a1,1,0,0,0,0-2.08A1,1,0,0,0,89.69,297.68Z" style="fill:#fff"></path><path d="M425.29,186.56a1,1,0,0,0,0-2.08A1,1,0,0,0,425.29,186.56Z" style="fill:#fff"></path><path d="M95.16,377.41a.74.74,0,0,0,0-1.47A.74.74,0,0,0,95.16,377.41Z" style="fill:#fff"></path><path d="M287.74,176.51a.74.74,0,0,0,0-1.47A.74.74,0,0,0,287.74,176.51Z" style="fill:#fff"></path><path d="M419.86,307a.74.74,0,0,0,0-1.47A.74.74,0,0,0,419.86,307Z" style="fill:#fff"></path><path d="M389,154.77a.74.74,0,0,0,0-1.47A.74.74,0,0,0,389,154.77Z" style="fill:#fff"></path><path d="M127.6,332.58c2.57,0,2.58-4,0-4S125,332.58,127.6,332.58Z" style="fill:#fff"></path><path d="M436.23,228.64c2.56,0,2.57-4,0-4S433.65,228.64,436.23,228.64Z" style="fill:#fff"></path></g></svg>
